<?xml version="1.0" standalone="no"?>
<!DOCTYPE svg PUBLIC "-//W3C//DTD SVG 20010904//EN"
 "http://www.w3.org/TR/2001/REC-SVG-20010904/DTD/svg10.dtd">
<svg version="1.0" xmlns="http://www.w3.org/2000/svg"
 width="500.000000pt" height="500.000000pt" viewBox="0 0 500.000000 500.000000"
 preserveAspectRatio="xMidYMid meet">
<metadata>
Created by potrace 1.11, written by Peter Selinger 2001-2013
</metadata>
<g transform="translate(0.000000,500.000000) scale(0.100000,-0.100000)"
fill="#000000" stroke="none">
<path d="M1416 4225 c-147 -30 -264 -84 -394 -182 -59 -44 -92 -63 -113 -63
-37 0 -83 -23 -103 -52 -14 -20 -16 -111 -16 -793 0 -747 1 -771 20 -802 12
-20 31 -35 50 -40 17 -5 643 -8 1393 -8 1291 1 1363 2 1389 18 14 10 31 32 37
49 7 20 11 178 11 454 l0 424 185 -1 c102 0 197 -4 212 -8 15 -4 35 -18 46
-32 17 -24 18 -53 18 -617 0 -532 -1 -593 -16 -616 -9 -14 -27 -28 -38 -32
-12 -4 -112 -8 -222 -9 -180 -1 -203 -3 -230 -21 -43 -28 -63 -54 -72 -94 -4
-19 -8 -38 -9 -42 -1 -5 -2 -11 -3 -15 0 -5 -38 -8 -84 -9 -99 0 -159 -24
-210 -85 -54 -62 -57 -86 -57 -430 0 -292 7 -383 29 -399 4 -3 17 -19 29 -37
12 -17 45 -43 74 -57 50 -25 58 -26 241 -26 224 0 254 7 318 70 68 68 71 86
72 461 0 308 -1 326 -20 364 -49 95 -119 135 -242 141 l-86 3 4 28 c10 80 29
87 256 88 105 1 205 5 222 9 20 5 47 24 68 49 l35 41 0 609 c0 608 0 609 -22
648 -36 65 -77 77 -248 77 -80 0 -169 1 -197 1 l-53 1 0 300 c0 205 -4 307
-12 324 -15 35 -52 57 -99 61 -25 2 -50 12 -72 32 -51 45 -168 120 -238 153
-121 56 -207 73 -379 74 -139 1 -165 -2 -254 -27 -116 -32 -232 -90 -328 -164
l-69 -54 -64 50 c-89 70 -214 135 -320 166 -74 22 -114 27 -230 30 -92 2 -164
-1 -209 -10z"/>
</g>
</svg>
